<svg width="2563" height="1107" viewBox="0 0 2563 1107" fill="none" xmlns="http://www.w3.org/2000/svg">
<path opacity="0.08" fill-rule="evenodd" clip-rule="evenodd" d="M457.311 5.38107L4.2881 495.285C-4.59412 504.89 2.21848 520.469 15.3011 520.469H176.612C184.896 520.469 191.612 527.184 191.612 535.469V1092C191.612 1100.28 198.328 1107 206.612 1107H698.39C706.674 1107 713.39 1100.28 713.39 1092V535.469C713.39 527.184 720.106 520.469 728.39 520.469H887.428C900.236 520.469 907.152 505.451 898.826 495.718L479.722 5.81407C473.886 -1.00751 463.406 -1.21001 457.311 5.38107ZM1665.26 703.186L2117.79 213.397C2123.88 206.799 2134.37 207.002 2140.21 213.83L2558.85 703.619C2567.17 713.353 2560.25 728.365 2547.45 728.365H2388.61C2380.33 728.365 2373.61 735.081 2373.61 743.365V956C2373.61 964.284 2366.89 971 2358.61 971H1867.39C1859.1 971 1852.39 964.284 1852.39 956V743.365C1852.39 735.081 1845.67 728.365 1837.39 728.365H1676.28C1663.2 728.365 1656.39 712.793 1665.26 703.186ZM1326.28 844.983L1494.13 663.388C1500.23 656.794 1510.71 656.997 1516.55 663.821L1671.84 845.416C1680.16 855.15 1673.24 870.165 1660.44 870.165H1622.19C1613.9 870.165 1607.19 876.88 1607.19 885.165V956C1607.19 964.284 1600.47 971 1592.19 971H1405.47C1397.19 971 1390.47 964.284 1390.47 956V885.165C1390.47 876.88 1383.76 870.165 1375.47 870.165H1337.29C1324.21 870.165 1317.4 854.589 1326.28 844.983Z" fill="#FF4343"/>
</svg>
