<svg width="700" height="759" viewBox="0 0 700 759" fill="none" xmlns="http://www.w3.org/2000/svg">
<path fill-rule="evenodd" clip-rule="evenodd" d="M0 2.91855e-05L682 3.71779e-05C691.604 3.69966e-05 699.5 7.50009 699.5 17.2251L699.5 389.96C699.5 584.64 541.681 742.5 347 742.5L128.536 742.5L140.178 754.142C141.154 755.118 141.154 756.701 140.178 757.678C139.201 758.654 137.618 758.654 136.642 757.678L120.732 741.768C119.756 740.791 119.756 739.209 120.732 738.232L136.642 722.322C137.618 721.346 139.201 721.346 140.178 722.322C141.154 723.299 141.154 724.882 140.178 725.858L128.536 737.5L347 737.5C538.919 737.5 694.5 581.879 694.5 389.96L694.5 17.2251C694.5 10.3816 688.964 5.00004 682 5.00004L2.18557e-07 5.00003L0 2.91855e-05Z" fill="#FF4343"/>
</svg>
