<svg width="703" height="759" viewBox="0 0 703 759" fill="none" xmlns="http://www.w3.org/2000/svg">
<path d="M123.732 738.732C122.756 739.709 122.756 741.291 123.732 742.268L139.642 758.178C140.618 759.154 142.201 759.154 143.178 758.178C144.154 757.201 144.154 755.618 143.178 754.642L129.036 740.5L143.178 726.358C144.154 725.382 144.154 723.799 143.178 722.822C142.201 721.846 140.618 721.846 139.642 722.822L123.732 738.732ZM697.5 17.7251C697.5 17.8171 697.5 17.9096 697.5 18.0025C697.5 18.0953 697.5 18.1886 697.5 18.2823C697.5 18.3759 697.5 18.47 697.5 18.5645C697.5 18.659 697.5 18.7539 697.5 18.8492C697.5 18.9445 697.5 19.0402 697.5 19.1363C697.5 19.2324 697.5 19.3289 697.5 19.4258C697.5 19.5227 697.5 19.6201 697.5 19.7178C697.5 19.8155 697.5 19.9136 697.5 20.0122C697.5 20.1107 697.5 20.2096 697.5 20.309C697.5 20.4083 697.5 20.508 697.5 20.6082C697.5 20.7083 697.5 20.8089 697.5 20.9098C697.5 21.0107 697.5 21.1121 697.5 21.2138C697.5 21.3156 697.5 21.4177 697.5 21.5202C697.5 21.6228 697.5 21.7257 697.5 21.8291C697.5 21.9324 697.5 22.0361 697.5 22.1403C697.5 22.2444 697.5 22.349 697.5 22.4539C697.5 22.5588 697.5 22.6641 697.5 22.7699C697.5 22.8756 697.5 22.9817 697.5 23.0882C697.5 23.1948 697.5 23.3017 697.5 23.409C697.5 23.5163 697.5 23.624 697.5 23.7321C697.5 23.8402 697.5 23.9487 697.5 24.0576C697.5 24.1665 697.5 24.2758 697.5 24.3854C697.5 24.4951 697.5 24.6052 697.5 24.7156C697.5 24.8261 697.5 24.937 697.5 25.0482C697.5 25.1595 697.5 25.2711 697.5 25.3831C697.5 25.4952 697.5 25.6076 697.5 25.7204C697.5 25.8332 697.5 25.9464 697.5 26.06C697.5 26.1736 697.5 26.2876 697.5 26.402C697.5 26.5163 697.5 26.6311 697.5 26.7463C697.5 26.8614 697.5 26.9769 697.5 27.0929C697.5 27.2088 697.5 27.3251 697.5 27.4418C697.5 27.5585 697.5 27.6756 697.5 27.7931C697.5 27.9106 697.5 28.0284 697.5 28.1467C697.5 28.2649 697.5 28.3836 697.5 28.5026C697.5 28.6216 697.5 28.741 697.5 28.8608C697.5 28.9806 697.5 29.1008 697.5 29.2214C697.5 29.3419 697.5 29.4629 697.5 29.5842C697.5 29.7055 697.5 29.8272 697.5 29.9493C697.5 30.0714 697.5 30.1939 697.5 30.3168C697.5 30.4396 697.5 30.5629 697.5 30.6865C697.5 30.8101 697.5 30.9341 697.5 31.0585C697.5 31.1829 697.5 31.3077 697.5 31.4328C697.5 31.558 697.5 31.6835 697.5 31.8094C697.5 31.9353 697.5 32.0616 697.5 32.1882C697.5 32.3149 697.5 32.4419 697.5 32.5694C697.5 32.6968 697.5 32.8246 697.5 32.9528C697.5 33.0809 697.5 33.2095 697.5 33.3384C697.5 33.4674 697.5 33.5967 697.5 33.7263C697.5 33.856 697.5 33.9861 697.5 34.1165C697.5 34.247 697.5 34.3778 697.5 34.5089C697.5 34.6401 697.5 34.7717 697.5 34.9036C697.5 35.0356 697.5 35.1679 697.5 35.3005C697.5 35.4332 697.5 35.5663 697.5 35.6997C697.5 35.8331 697.5 35.9669 697.5 36.1011C697.5 36.2353 697.5 36.3698 697.5 36.5047C697.5 36.6397 697.5 36.7749 697.5 36.9106C697.5 37.0463 697.5 37.1823 697.5 37.3187C697.5 37.4551 697.5 37.5918 697.5 37.729C697.5 37.8661 697.5 38.0036 697.5 38.1415C697.5 38.2794 697.5 38.4176 697.5 38.5562C697.5 38.6948 697.5 38.8338 697.5 38.9732C697.5 39.1125 697.5 39.2522 697.5 39.3923C697.5 39.5324 697.5 39.6729 697.5 39.8137C697.5 39.9545 697.5 40.0957 697.5 40.2372C697.5 40.3788 697.5 40.5207 697.5 40.6629C697.5 40.8052 697.5 40.9479 697.5 41.0909C697.5 41.2339 697.5 41.3772 697.5 41.521C697.5 41.6647 697.5 41.8088 697.5 41.9533C697.5 42.0977 697.5 42.2425 697.5 42.3877C697.5 42.5329 697.5 42.6784 697.5 42.8244C697.5 42.9703 697.5 43.1165 697.5 43.2632C697.5 43.4098 697.5 43.5568 697.5 43.7041C697.5 43.8515 697.5 43.9992 697.5 44.1472C697.5 44.2953 697.5 44.4437 697.5 44.5925C697.5 44.7413 697.5 44.8905 697.5 45.04C697.5 45.1895 697.5 45.3393 697.5 45.4896C697.5 45.6398 697.5 45.7903 697.5 45.9413C697.5 46.0922 697.5 46.2435 697.5 46.3951C697.5 46.5468 697.5 46.6988 697.5 46.8512C697.5 47.0035 697.5 47.1562 697.5 47.3093C697.5 47.4624 697.5 47.6158 697.5 47.7696C697.5 47.9233 697.5 48.0775 697.5 48.2319C697.5 48.3864 697.5 48.5413 697.5 48.6965C697.5 48.8516 697.5 49.0072 697.5 49.1631C697.5 49.319 697.5 49.4752 697.5 49.6318C697.5 49.7884 697.5 49.9454 697.5 50.1027C697.5 50.26 697.5 50.4176 697.5 50.5756C697.5 50.7336 697.5 50.892 697.5 51.0507C697.5 51.2094 697.5 51.3684 697.5 51.5278C697.5 51.6872 697.5 51.847 697.5 52.007C697.5 52.1671 697.5 52.3276 697.5 52.4884C697.5 52.6492 697.5 52.8103 697.5 52.9718C697.5 53.1333 697.5 53.2951 697.5 53.4573C697.5 53.6195 697.5 53.782 697.5 53.9448C697.5 54.1077 697.5 54.2709 697.5 54.4345C697.5 54.598 697.5 54.7619 697.5 54.9262C697.5 55.0904 697.5 55.255 697.5 55.42C697.5 55.5849 697.5 55.7502 697.5 55.9158C697.5 56.0814 697.5 56.2474 697.5 56.4137C697.5 56.58 697.5 56.7466 697.5 56.9136C697.5 57.0806 697.5 57.2479 697.5 57.4156C697.5 57.5833 697.5 57.7513 697.5 57.9196C697.5 58.088 697.5 58.2567 697.5 58.4257C697.5 58.5947 697.5 58.7641 697.5 58.9338C697.5 59.1035 697.5 59.2736 697.5 59.444C697.5 59.6143 697.5 59.7851 697.5 59.9561C697.5 60.1272 697.5 60.2986 697.5 60.4703C697.5 60.6421 697.5 60.8141 697.5 60.9865C697.5 61.1589 697.5 61.3317 697.5 61.5048C697.5 61.6778 697.5 61.8513 697.5 62.025C697.5 62.1987 697.5 62.3728 697.5 62.5473C697.5 62.7217 697.5 62.8964 697.5 63.0715C697.5 63.2466 697.5 63.422 697.5 63.5978C697.5 63.7735 697.5 63.9496 697.5 64.126C697.5 64.3024 697.5 64.4792 697.5 64.6562C697.5 64.8333 697.5 65.0107 697.5 65.1885C697.5 65.3662 697.5 65.5443 697.5 65.7227C697.5 65.9011 697.5 66.0798 697.5 66.2589C697.5 66.4379 697.5 66.6173 697.5 66.7971C697.5 66.9768 697.5 67.1568 697.5 67.3372C697.5 67.5176 697.5 67.6983 697.5 67.8793C697.5 68.0603 697.5 68.2417 697.5 68.4234C697.5 68.6051 697.5 68.7871 697.5 68.9694C697.5 69.1517 697.5 69.3344 697.5 69.5174C697.5 69.7004 697.5 69.8837 697.5 70.0673C697.5 70.251 697.5 70.4349 697.5 70.6192C697.5 70.8035 697.5 70.9881 697.5 71.1731C697.5 71.358 697.5 71.5433 697.5 71.7288C697.5 71.9144 697.5 72.1003 697.5 72.2865C697.5 72.4728 697.5 72.6593 697.5 72.8462C697.5 73.033 697.5 73.2202 697.5 73.4077C697.5 73.5953 697.5 73.7831 697.5 73.9712C697.5 74.1594 697.5 74.3479 697.5 74.5367C697.5 74.7254 697.5 74.9146 697.5 75.104C697.5 75.2934 697.5 75.4832 697.5 75.6732C697.5 75.8633 697.5 76.0537 697.5 76.2444C697.5 76.4351 697.5 76.6261 697.5 76.8174C697.5 77.0088 697.5 77.2004 697.5 77.3924C697.5 77.5843 697.5 77.7766 697.5 77.9692C697.5 78.1618 697.5 78.3547 697.5 78.548C697.5 78.7412 697.5 78.9347 697.5 79.1286C697.5 79.3224 697.5 79.5166 697.5 79.7111C697.5 79.9056 697.5 80.1004 697.5 80.2955C697.5 80.4906 697.5 80.686 697.5 80.8818C697.5 81.0775 697.5 81.2735 697.5 81.4699C697.5 81.6663 697.5 81.8629 697.5 82.0599C697.5 82.2569 697.5 82.4542 697.5 82.6518C697.5 82.8494 697.5 83.0473 697.5 83.2455C697.5 83.4437 697.5 83.6423 697.5 83.8411C697.5 84.0399 697.5 84.2391 697.5 84.4385C697.5 84.638 697.5 84.8378 697.5 85.0378C697.5 85.2379 697.5 85.4383 697.5 85.639C697.5 85.8396 697.5 86.0406 697.5 86.2419C697.5 86.4432 697.5 86.6448 697.5 86.8467C697.5 87.0486 697.5 87.2509 697.5 87.4534C697.5 87.6559 697.5 87.8587 697.5 88.0618C697.5 88.265 697.5 88.4684 697.5 88.6721C697.5 88.8759 697.5 89.0799 697.5 89.2842C697.5 89.4886 697.5 89.6932 697.5 89.8982C697.5 90.1031 697.5 90.3083 697.5 90.5139C697.5 90.7194 697.5 90.9253 697.5 91.1314C697.5 91.3376 697.5 91.544 697.5 91.7508C697.5 91.9575 697.5 92.1646 697.5 92.3719C697.5 92.5793 697.5 92.7869 697.5 92.9949C697.5 93.2028 697.5 93.4111 697.5 93.6196C697.5 93.8282 697.5 94.037 697.5 94.2461C697.5 94.4553 697.5 94.6647 697.5 94.8745C697.5 95.0842 697.5 95.2942 697.5 95.5045C697.5 95.7149 697.5 95.9255 697.5 96.1364C697.5 96.3473 697.5 96.5585 697.5 96.77C697.5 96.9815 697.5 97.1934 697.5 97.4054C697.5 97.6175 697.5 97.8299 697.5 98.0426C697.5 98.2553 697.5 98.4683 697.5 98.6815C697.5 98.8948 697.5 99.1084 697.5 99.3222C697.5 99.5361 697.5 99.7502 697.5 99.9647C697.5 100.179 697.5 100.394 697.5 100.609C697.5 100.824 697.5 101.039 697.5 101.255C697.5 101.47 697.5 101.686 697.5 101.902C697.5 102.119 697.5 102.335 697.5 102.552C697.5 102.769 697.5 102.986 697.5 103.203C697.5 103.42 697.5 103.638 697.5 103.856C697.5 104.074 697.5 104.292 697.5 104.51C697.5 104.729 697.5 104.948 697.5 105.167C697.5 105.386 697.5 105.605 697.5 105.825C697.5 106.044 697.5 106.264 697.5 106.484C697.5 106.705 697.5 106.925 697.5 107.146C697.5 107.367 697.5 107.588 697.5 107.809C697.5 108.03 697.5 108.252 697.5 108.474C697.5 108.696 697.5 108.918 697.5 109.14C697.5 109.363 697.5 109.586 697.5 109.809C697.5 110.032 697.5 110.255 697.5 110.479C697.5 110.702 697.5 110.926 697.5 111.15C697.5 111.374 697.5 111.599 697.5 111.823C697.5 112.048 697.5 112.273 697.5 112.498C697.5 112.724 697.5 112.949 697.5 113.175C697.5 113.401 697.5 113.627 697.5 113.853C697.5 114.08 697.5 114.306 697.5 114.533C697.5 114.76 697.5 114.987 697.5 115.215C697.5 115.442 697.5 115.67 697.5 115.898C697.5 116.126 697.5 116.355 697.5 116.583C697.5 116.812 697.5 117.041 697.5 117.27C697.5 117.499 697.5 117.728 697.5 117.958C697.5 118.188 697.5 118.418 697.5 118.648C697.5 118.878 697.5 119.108 697.5 119.339C697.5 119.57 697.5 119.801 697.5 120.032C697.5 120.264 697.5 120.495 697.5 120.727C697.5 120.959 697.5 121.191 697.5 121.424C697.5 121.656 697.5 121.889 697.5 122.122C697.5 122.354 697.5 122.588 697.5 122.821C697.5 123.055 697.5 123.288 697.5 123.522C697.5 123.756 697.5 123.991 697.5 124.225C697.5 124.46 697.5 124.695 697.5 124.93C697.5 125.165 697.5 125.4 697.5 125.636C697.5 125.871 697.5 126.107 697.5 126.343C697.5 126.579 697.5 126.816 697.5 127.052C697.5 127.289 697.5 127.526 697.5 127.763C697.5 128 697.5 128.238 697.5 128.476C697.5 128.713 697.5 128.951 697.5 129.19C697.5 129.428 697.5 129.666 697.5 129.905C697.5 130.144 697.5 130.383 697.5 130.622C697.5 130.862 697.5 131.101 697.5 131.341C697.5 131.581 697.5 131.821 697.5 132.061C697.5 132.302 697.5 132.542 697.5 132.783C697.5 133.024 697.5 133.265 697.5 133.506C697.5 133.748 697.5 133.989 697.5 134.231C697.5 134.473 697.5 134.715 697.5 134.958C697.5 135.2 697.5 135.443 697.5 135.686C697.5 135.929 697.5 136.172 697.5 136.415C697.5 136.659 697.5 136.902 697.5 137.146C697.5 137.39 697.5 137.635 697.5 137.879C697.5 138.124 697.5 138.368 697.5 138.613C697.5 138.858 697.5 139.103 697.5 139.349C697.5 139.594 697.5 139.84 697.5 140.086C697.5 140.332 697.5 140.578 697.5 140.825C697.5 141.071 697.5 141.318 697.5 141.565C697.5 141.812 697.5 142.059 697.5 142.307C697.5 142.554 697.5 142.802 697.5 143.05C697.5 143.298 697.5 143.546 697.5 143.795C697.5 144.043 697.5 144.292 697.5 144.541C697.5 144.79 697.5 145.039 697.5 145.289C697.5 145.538 697.5 145.788 697.5 146.038C697.5 146.288 697.5 146.538 697.5 146.788C697.5 147.039 697.5 147.29 697.5 147.541C697.5 147.792 697.5 148.043 697.5 148.294C697.5 148.546 697.5 148.797 697.5 149.049C697.5 149.301 697.5 149.553 697.5 149.806C697.5 150.058 697.5 150.311 697.5 150.564C697.5 150.817 697.5 151.07 697.5 151.323C697.5 151.577 697.5 151.83 697.5 152.084C697.5 152.338 697.5 152.592 697.5 152.847C697.5 153.101 697.5 153.356 697.5 153.611C697.5 153.865 697.5 154.121 697.5 154.376C697.5 154.631 697.5 154.887 697.5 155.143C697.5 155.398 697.5 155.655 697.5 155.911C697.5 156.167 697.5 156.424 697.5 156.68C697.5 156.937 697.5 157.194 697.5 157.451C697.5 157.709 697.5 157.966 697.5 158.224C697.5 158.482 697.5 158.74 697.5 158.998C697.5 159.256 697.5 159.514 697.5 159.773C697.5 160.032 697.5 160.291 697.5 160.55C697.5 160.809 697.5 161.068 697.5 161.328C697.5 161.587 697.5 161.847 697.5 162.107C697.5 162.367 697.5 162.628 697.5 162.888C697.5 163.149 697.5 163.41 697.5 163.671C697.5 163.932 697.5 164.193 697.5 164.454C697.5 164.716 697.5 164.977 697.5 165.239C697.5 165.501 697.5 165.763 697.5 166.026C697.5 166.288 697.5 166.551 697.5 166.814C697.5 167.076 697.5 167.34 697.5 167.603C697.5 167.866 697.5 168.13 697.5 168.393C697.5 168.657 697.5 168.921 697.5 169.185C697.5 169.45 697.5 169.714 697.5 169.979C697.5 170.243 697.5 170.508 697.5 170.773C697.5 171.039 697.5 171.304 697.5 171.569C697.5 171.835 697.5 172.101 697.5 172.367C697.5 172.633 697.5 172.899 697.5 173.166C697.5 173.432 697.5 173.699 697.5 173.966C697.5 174.233 697.5 174.5 697.5 174.767C697.5 175.034 697.5 175.302 697.5 175.57C697.5 175.838 697.5 176.106 697.5 176.374C697.5 176.642 697.5 176.911 697.5 177.179C697.5 177.448 697.5 177.717 697.5 177.986C697.5 178.255 697.5 178.525 697.5 178.794C697.5 179.064 697.5 179.333 697.5 179.603C697.5 179.873 697.5 180.144 697.5 180.414C697.5 180.685 697.5 180.955 697.5 181.226C697.5 181.497 697.5 181.768 697.5 182.039C697.5 182.311 697.5 182.582 697.5 182.854C697.5 183.126 697.5 183.398 697.5 183.67C697.5 183.942 697.5 184.214 697.5 184.487C697.5 184.76 697.5 185.032 697.5 185.306C697.5 185.579 697.5 185.852 697.5 186.125C697.5 186.399 697.5 186.672 697.5 186.946C697.5 187.22 697.5 187.494 697.5 187.769C697.5 188.043 697.5 188.317 697.5 188.592C697.5 188.867 697.5 189.142 697.5 189.417C697.5 189.692 697.5 189.968 697.5 190.243C697.5 190.519 697.5 190.794 697.5 191.07C697.5 191.346 697.5 191.623 697.5 191.899C697.5 192.175 697.5 192.452 697.5 192.729C697.5 193.006 697.5 193.283 697.5 193.56C697.5 193.837 697.5 194.115 697.5 194.392C697.5 194.67 697.5 194.948 697.5 195.226C697.5 195.504 697.5 195.782 697.5 196.061C697.5 196.339 697.5 196.618 697.5 196.897C697.5 197.176 697.5 197.455 697.5 197.734C697.5 198.014 697.5 198.293 697.5 198.573C697.5 198.852 697.5 199.132 697.5 199.412C697.5 199.693 697.5 199.973 697.5 200.253C697.5 200.534 697.5 200.815 697.5 201.096C697.5 201.376 697.5 201.658 697.5 201.939C697.5 202.22 697.5 202.502 697.5 202.783C697.5 203.065 697.5 203.347 697.5 203.629C697.5 203.911 697.5 204.194 697.5 204.476C697.5 204.759 697.5 205.041 697.5 205.324C697.5 205.607 697.5 205.89 697.5 206.174C697.5 206.457 697.5 206.741 697.5 207.024C697.5 207.308 697.5 207.592 697.5 207.876C697.5 208.16 697.5 208.444 697.5 208.729C697.5 209.013 697.5 209.298 697.5 209.583C697.5 209.868 697.5 210.153 697.5 210.438C697.5 210.723 697.5 211.009 697.5 211.294C697.5 211.58 697.5 211.866 697.5 212.152C697.5 212.438 697.5 212.724 697.5 213.011C697.5 213.297 697.5 213.584 697.5 213.871C697.5 214.157 697.5 214.444 697.5 214.732C697.5 215.019 697.5 215.306 697.5 215.594C697.5 215.881 697.5 216.169 697.5 216.457C697.5 216.745 697.5 217.033 697.5 217.321C697.5 217.61 697.5 217.898 697.5 218.187C697.5 218.476 697.5 218.764 697.5 219.054C697.5 219.343 697.5 219.632 697.5 219.921C697.5 220.211 697.5 220.5 697.5 220.79C697.5 221.08 697.5 221.37 697.5 221.66C697.5 221.95 697.5 222.241 697.5 222.531C697.5 222.822 697.5 223.113 697.5 223.404C697.5 223.695 697.5 223.986 697.5 224.277C697.5 224.568 697.5 224.86 697.5 225.151C697.5 225.443 697.5 225.735 697.5 226.027C697.5 226.319 697.5 226.611 697.5 226.904C697.5 227.196 697.5 227.489 697.5 227.781C697.5 228.074 697.5 228.367 697.5 228.66C697.5 228.953 697.5 229.247 697.5 229.54C697.5 229.833 697.5 230.127 697.5 230.421C697.5 230.715 697.5 231.009 697.5 231.303C697.5 231.597 697.5 231.892 697.5 232.186C697.5 232.481 697.5 232.775 697.5 233.07C697.5 233.365 697.5 233.66 697.5 233.955C697.5 234.251 697.5 234.546 697.5 234.842C697.5 235.137 697.5 235.433 697.5 235.729C697.5 236.025 697.5 236.321 697.5 236.617C697.5 236.914 697.5 237.21 697.5 237.507C697.5 237.803 697.5 238.1 697.5 238.397C697.5 238.694 697.5 238.991 697.5 239.289C697.5 239.586 697.5 239.884 697.5 240.181C697.5 240.479 697.5 240.777 697.5 241.075C697.5 241.373 697.5 241.671 697.5 241.969C697.5 242.268 697.5 242.566 697.5 242.865C697.5 243.164 697.5 243.463 697.5 243.762C697.5 244.061 697.5 244.36 697.5 244.659C697.5 244.959 697.5 245.258 697.5 245.558C697.5 245.857 697.5 246.157 697.5 246.457C697.5 246.757 697.5 247.058 697.5 247.358C697.5 247.658 697.5 247.959 697.5 248.26C697.5 248.56 697.5 248.861 697.5 249.162C697.5 249.463 697.5 249.764 697.5 250.066C697.5 250.367 697.5 250.669 697.5 250.97C697.5 251.272 697.5 251.574 697.5 251.876C697.5 252.178 697.5 252.48 697.5 252.782C697.5 253.085 697.5 253.387 697.5 253.69C697.5 253.993 697.5 254.295 697.5 254.598C697.5 254.901 697.5 255.205 697.5 255.508C697.5 255.811 697.5 256.115 697.5 256.418C697.5 256.722 697.5 257.026 697.5 257.33C697.5 257.634 697.5 257.938 697.5 258.242C697.5 258.546 697.5 258.851 697.5 259.155C697.5 259.46 697.5 259.764 697.5 260.069C697.5 260.374 697.5 260.679 697.5 260.984C697.5 261.29 697.5 261.595 697.5 261.9C697.5 262.206 697.5 262.512 697.5 262.817C697.5 263.123 697.5 263.429 697.5 263.735C697.5 264.041 697.5 264.348 697.5 264.654C697.5 264.961 697.5 265.267 697.5 265.574C697.5 265.881 697.5 266.188 697.5 266.495C697.5 266.802 697.5 267.109 697.5 267.416C697.5 267.724 697.5 268.031 697.5 268.339C697.5 268.646 697.5 268.954 697.5 269.262C697.5 269.57 697.5 269.878 697.5 270.186C697.5 270.495 697.5 270.803 697.5 271.112C697.5 271.42 697.5 271.729 697.5 272.038C697.5 272.346 697.5 272.655 697.5 272.965C697.5 273.274 697.5 273.583 697.5 273.892C697.5 274.202 697.5 274.511 697.5 274.821C697.5 275.131 697.5 275.441 697.5 275.751C697.5 276.061 697.5 276.371 697.5 276.681C697.5 276.992 697.5 277.302 697.5 277.613C697.5 277.923 697.5 278.234 697.5 278.545C697.5 278.856 697.5 279.167 697.5 279.478C697.5 279.789 697.5 280.1 697.5 280.412C697.5 280.723 697.5 281.035 697.5 281.346C697.5 281.658 697.5 281.97 697.5 282.282C697.5 282.594 697.5 282.906 697.5 283.219C697.5 283.531 697.5 283.843 697.5 284.156C697.5 284.468 697.5 284.781 697.5 285.094C697.5 285.407 697.5 285.72 697.5 286.033C697.5 286.346 697.5 286.659 697.5 286.973C697.5 287.286 697.5 287.6 697.5 287.913C697.5 288.227 697.5 288.541 697.5 288.855C697.5 289.169 697.5 289.483 697.5 289.797C697.5 290.111 697.5 290.425 697.5 290.74C697.5 291.054 697.5 291.369 697.5 291.684C697.5 291.999 697.5 292.313 697.5 292.628C697.5 292.944 697.5 293.259 697.5 293.574C697.5 293.889 697.5 294.205 697.5 294.52C697.5 294.836 697.5 295.151 697.5 295.467C697.5 295.783 697.5 296.099 697.5 296.415C697.5 296.731 697.5 297.047 697.5 297.364C697.5 297.68 697.5 297.996 697.5 298.313C697.5 298.63 697.5 298.946 697.5 299.263C697.5 299.58 697.5 299.897 697.5 300.214C697.5 300.531 697.5 300.849 697.5 301.166C697.5 301.483 697.5 301.801 697.5 302.118C697.5 302.436 697.5 302.754 697.5 303.072C697.5 303.389 697.5 303.707 697.5 304.026C697.5 304.344 697.5 304.662 697.5 304.98C697.5 305.299 697.5 305.617 697.5 305.936C697.5 306.254 697.5 306.573 697.5 306.892C697.5 307.211 697.5 307.53 697.5 307.849C697.5 308.168 697.5 308.487 697.5 308.807C697.5 309.126 697.5 309.445 697.5 309.765C697.5 310.085 697.5 310.404 697.5 310.724C697.5 311.044 697.5 311.364 697.5 311.684C697.5 312.004 697.5 312.324 697.5 312.645C697.5 312.965 697.5 313.285 697.5 313.606C697.5 313.926 697.5 314.247 697.5 314.568C697.5 314.889 697.5 315.21 697.5 315.531C697.5 315.852 697.5 316.173 697.5 316.494C697.5 316.815 697.5 317.137 697.5 317.458C697.5 317.78 697.5 318.101 697.5 318.423C697.5 318.745 697.5 319.067 697.5 319.389C697.5 319.71 697.5 320.033 697.5 320.355C697.5 320.677 697.5 320.999 697.5 321.322C697.5 321.644 697.5 321.967 697.5 322.289C697.5 322.612 697.5 322.935 697.5 323.257C697.5 323.58 697.5 323.903 697.5 324.226C697.5 324.549 697.5 324.873 697.5 325.196C697.5 325.519 697.5 325.843 697.5 326.166C697.5 326.49 697.5 326.813 697.5 327.137C697.5 327.461 697.5 327.785 697.5 328.108C697.5 328.432 697.5 328.756 697.5 329.081C697.5 329.405 697.5 329.729 697.5 330.054C697.5 330.378 697.5 330.702 697.5 331.027C697.5 331.352 697.5 331.676 697.5 332.001C697.5 332.326 697.5 332.651 697.5 332.976C697.5 333.301 697.5 333.626 697.5 333.951C697.5 334.276 697.5 334.602 697.5 334.927C697.5 335.253 697.5 335.578 697.5 335.904C697.5 336.23 697.5 336.555 697.5 336.881C697.5 337.207 697.5 337.533 697.5 337.859C697.5 338.185 697.5 338.511 697.5 338.837C697.5 339.164 697.5 339.49 697.5 339.817C697.5 340.143 697.5 340.47 697.5 340.796C697.5 341.123 697.5 341.45 697.5 341.777C697.5 342.103 697.5 342.43 697.5 342.757C697.5 343.084 697.5 343.412 697.5 343.739C697.5 344.066 697.5 344.393 697.5 344.721C697.5 345.048 697.5 345.376 697.5 345.704C697.5 346.031 697.5 346.359 697.5 346.687C697.5 347.015 697.5 347.343 697.5 347.671C697.5 347.999 697.5 348.327 697.5 348.655C697.5 348.983 697.5 349.311 697.5 349.64C697.5 349.968 697.5 350.297 697.5 350.625C697.5 350.954 697.5 351.283 697.5 351.611C697.5 351.94 697.5 352.269 697.5 352.598C697.5 352.927 697.5 353.256 697.5 353.585C697.5 353.914 697.5 354.243 697.5 354.573C697.5 354.902 697.5 355.232 697.5 355.561C697.5 355.891 697.5 356.22 697.5 356.55C697.5 356.88 697.5 357.209 697.5 357.539C697.5 357.869 697.5 358.199 697.5 358.529C697.5 358.859 697.5 359.189 697.5 359.519C697.5 359.85 697.5 360.18 697.5 360.51C697.5 360.841 697.5 361.171 697.5 361.502C697.5 361.832 697.5 362.163 697.5 362.494C697.5 362.824 697.5 363.155 697.5 363.486C697.5 363.817 697.5 364.148 697.5 364.479C697.5 364.81 697.5 365.141 697.5 365.472C697.5 365.804 697.5 366.135 697.5 366.466C697.5 366.798 697.5 367.129 697.5 367.461C697.5 367.792 697.5 368.124 697.5 368.456C697.5 368.787 697.5 369.119 697.5 369.451C697.5 369.783 697.5 370.115 697.5 370.447C697.5 370.779 697.5 371.111 697.5 371.443C697.5 371.776 697.5 372.108 697.5 372.44C697.5 372.773 697.5 373.105 697.5 373.438C697.5 373.77 697.5 374.103 697.5 374.435C697.5 374.768 697.5 375.101 697.5 375.434C697.5 375.766 697.5 376.099 697.5 376.432C697.5 376.765 697.5 377.098 697.5 377.431C697.5 377.765 697.5 378.098 697.5 378.431C697.5 378.764 697.5 379.098 697.5 379.431C697.5 379.765 697.5 380.098 697.5 380.432C697.5 380.765 697.5 381.099 697.5 381.433C697.5 381.766 697.5 382.1 697.5 382.434C697.5 382.768 697.5 383.102 697.5 383.436C697.5 383.77 697.5 384.104 697.5 384.438C697.5 384.772 697.5 385.106 697.5 385.441C697.5 385.775 697.5 386.109 697.5 386.444C697.5 386.778 697.5 387.113 697.5 387.447C697.5 387.782 697.5 388.116 697.5 388.451C697.5 388.786 697.5 389.12 697.5 389.455C697.5 389.79 697.5 390.125 697.5 390.46L702.5 390.46C702.5 390.125 702.5 389.79 702.5 389.455C702.5 389.12 702.5 388.786 702.5 388.451C702.5 388.116 702.5 387.782 702.5 387.447C702.5 387.113 702.5 386.778 702.5 386.444C702.5 386.109 702.5 385.775 702.5 385.441C702.5 385.106 702.5 384.772 702.5 384.438C702.5 384.104 702.5 383.77 702.5 383.436C702.5 383.102 702.5 382.768 702.5 382.434C702.5 382.1 702.5 381.766 702.5 381.433C702.5 381.099 702.5 380.765 702.5 380.432C702.5 380.098 702.5 379.765 702.5 379.431C702.5 379.098 702.5 378.764 702.5 378.431C702.5 378.098 702.5 377.765 702.5 377.431C702.5 377.098 702.5 376.765 702.5 376.432C702.5 376.099 702.5 375.766 702.5 375.434C702.5 375.101 702.5 374.768 702.5 374.435C702.5 374.103 702.5 373.77 702.5 373.438C702.5 373.105 702.5 372.773 702.5 372.44C702.5 372.108 702.5 371.776 702.5 371.443C702.5 371.111 702.5 370.779 702.5 370.447C702.5 370.115 702.5 369.783 702.5 369.451C702.5 369.119 702.5 368.787 702.5 368.456C702.5 368.124 702.5 367.792 702.5 367.461C702.5 367.129 702.5 366.798 702.5 366.466C702.5 366.135 702.5 365.804 702.5 365.472C702.5 365.141 702.5 364.81 702.5 364.479C702.5 364.148 702.5 363.817 702.5 363.486C702.5 363.155 702.5 362.824 702.5 362.494C702.5 362.163 702.5 361.832 702.5 361.502C702.5 361.171 702.5 360.841 702.5 360.51C702.5 360.18 702.5 359.85 702.5 359.519C702.5 359.189 702.5 358.859 702.5 358.529C702.5 358.199 702.5 357.869 702.5 357.539C702.5 357.209 702.5 356.88 702.5 356.55C702.5 356.22 702.5 355.891 702.5 355.561C702.5 355.232 702.5 354.902 702.5 354.573C702.5 354.243 702.5 353.914 702.5 353.585C702.5 353.256 702.5 352.927 702.5 352.598C702.5 352.269 702.5 351.94 702.5 351.611C702.5 351.283 702.5 350.954 702.5 350.625C702.5 350.297 702.5 349.968 702.5 349.64C702.5 349.311 702.5 348.983 702.5 348.655C702.5 348.327 702.5 347.999 702.5 347.671C702.5 347.343 702.5 347.015 702.5 346.687C702.5 346.359 702.5 346.031 702.5 345.704C702.5 345.376 702.5 345.048 702.5 344.721C702.5 344.393 702.5 344.066 702.5 343.739C702.5 343.412 702.5 343.084 702.5 342.757C702.5 342.43 702.5 342.103 702.5 341.777C702.5 341.45 702.5 341.123 702.5 340.796C702.5 340.47 702.5 340.143 702.5 339.817C702.5 339.49 702.5 339.164 702.5 338.837C702.5 338.511 702.5 338.185 702.5 337.859C702.5 337.533 702.5 337.207 702.5 336.881C702.5 336.555 702.5 336.23 702.5 335.904C702.5 335.578 702.5 335.253 702.5 334.927C702.5 334.602 702.5 334.276 702.5 333.951C702.5 333.626 702.5 333.301 702.5 332.976C702.5 332.651 702.5 332.326 702.5 332.001C702.5 331.676 702.5 331.352 702.5 331.027C702.5 330.702 702.5 330.378 702.5 330.054C702.5 329.729 702.5 329.405 702.5 329.081C702.5 328.756 702.5 328.432 702.5 328.108C702.5 327.785 702.5 327.461 702.5 327.137C702.5 326.813 702.5 326.49 702.5 326.166C702.5 325.843 702.5 325.519 702.5 325.196C702.5 324.873 702.5 324.549 702.5 324.226C702.5 323.903 702.5 323.58 702.5 323.257C702.5 322.935 702.5 322.612 702.5 322.289C702.5 321.967 702.5 321.644 702.5 321.322C702.5 320.999 702.5 320.677 702.5 320.355C702.5 320.033 702.5 319.71 702.5 319.389C702.5 319.067 702.5 318.745 702.5 318.423C702.5 318.101 702.5 317.78 702.5 317.458C702.5 317.137 702.5 316.815 702.5 316.494C702.5 316.173 702.5 315.852 702.5 315.531C702.5 315.21 702.5 314.889 702.5 314.568C702.5 314.247 702.5 313.926 702.5 313.606C702.5 313.285 702.5 312.965 702.5 312.645C702.5 312.324 702.5 312.004 702.5 311.684C702.5 311.364 702.5 311.044 702.5 310.724C702.5 310.404 702.5 310.085 702.5 309.765C702.5 309.445 702.5 309.126 702.5 308.807C702.5 308.487 702.5 308.168 702.5 307.849C702.5 307.53 702.5 307.211 702.5 306.892C702.5 306.573 702.5 306.254 702.5 305.936C702.5 305.617 702.5 305.299 702.5 304.98C702.5 304.662 702.5 304.344 702.5 304.026C702.5 303.707 702.5 303.389 702.5 303.072C702.5 302.754 702.5 302.436 702.5 302.118C702.5 301.801 702.5 301.483 702.5 301.166C702.5 300.849 702.5 300.531 702.5 300.214C702.5 299.897 702.5 299.58 702.5 299.263C702.5 298.946 702.5 298.63 702.5 298.313C702.5 297.996 702.5 297.68 702.5 297.364C702.5 297.047 702.5 296.731 702.5 296.415C702.5 296.099 702.5 295.783 702.5 295.467C702.5 295.151 702.5 294.836 702.5 294.52C702.5 294.205 702.5 293.889 702.5 293.574C702.5 293.259 702.5 292.944 702.5 292.628C702.5 292.313 702.5 291.999 702.5 291.684C702.5 291.369 702.5 291.054 702.5 290.74C702.5 290.425 702.5 290.111 702.5 289.797C702.5 289.483 702.5 289.169 702.5 288.855C702.5 288.541 702.5 288.227 702.5 287.913C702.5 287.6 702.5 287.286 702.5 286.973C702.5 286.659 702.5 286.346 702.5 286.033C702.5 285.72 702.5 285.407 702.5 285.094C702.5 284.781 702.5 284.468 702.5 284.156C702.5 283.843 702.5 283.531 702.5 283.219C702.5 282.906 702.5 282.594 702.5 282.282C702.5 281.97 702.5 281.658 702.5 281.346C702.5 281.035 702.5 280.723 702.5 280.412C702.5 280.1 702.5 279.789 702.5 279.478C702.5 279.167 702.5 278.856 702.5 278.545C702.5 278.234 702.5 277.923 702.5 277.613C702.5 277.302 702.5 276.992 702.5 276.681C702.5 276.371 702.5 276.061 702.5 275.751C702.5 275.441 702.5 275.131 702.5 274.821C702.5 274.511 702.5 274.202 702.5 273.892C702.5 273.583 702.5 273.274 702.5 272.965C702.5 272.655 702.5 272.346 702.5 272.038C702.5 271.729 702.5 271.42 702.5 271.112C702.5 270.803 702.5 270.495 702.5 270.186C702.5 269.878 702.5 269.57 702.5 269.262C702.5 268.954 702.5 268.646 702.5 268.339C702.5 268.031 702.5 267.724 702.5 267.416C702.5 267.109 702.5 266.802 702.5 266.495C702.5 266.188 702.5 265.881 702.5 265.574C702.5 265.267 702.5 264.961 702.5 264.654C702.5 264.348 702.5 264.041 702.5 263.735C702.5 263.429 702.5 263.123 702.5 262.817C702.5 262.512 702.5 262.206 702.5 261.9C702.5 261.595 702.5 261.29 702.5 260.984C702.5 260.679 702.5 260.374 702.5 260.069C702.5 259.764 702.5 259.46 702.5 259.155C702.5 258.851 702.5 258.546 702.5 258.242C702.5 257.938 702.5 257.634 702.5 257.33C702.5 257.026 702.5 256.722 702.5 256.418C702.5 256.115 702.5 255.811 702.5 255.508C702.5 255.205 702.5 254.901 702.5 254.598C702.5 254.295 702.5 253.993 702.5 253.69C702.5 253.387 702.5 253.085 702.5 252.782C702.5 252.48 702.5 252.178 702.5 251.876C702.5 251.574 702.5 251.272 702.5 250.97C702.5 250.669 702.5 250.367 702.5 250.066C702.5 249.764 702.5 249.463 702.5 249.162C702.5 248.861 702.5 248.56 702.5 248.26C702.5 247.959 702.5 247.658 702.5 247.358C702.5 247.058 702.5 246.757 702.5 246.457C702.5 246.157 702.5 245.857 702.5 245.558C702.5 245.258 702.5 244.959 702.5 244.659C702.5 244.36 702.5 244.061 702.5 243.762C702.5 243.463 702.5 243.164 702.5 242.865C702.5 242.566 702.5 242.268 702.5 241.969C702.5 241.671 702.5 241.373 702.5 241.075C702.5 240.777 702.5 240.479 702.5 240.181C702.5 239.884 702.5 239.586 702.5 239.289C702.5 238.991 702.5 238.694 702.5 238.397C702.5 238.1 702.5 237.803 702.5 237.507C702.5 237.21 702.5 236.914 702.5 236.617C702.5 236.321 702.5 236.025 702.5 235.729C702.5 235.433 702.5 235.137 702.5 234.842C702.5 234.546 702.5 234.251 702.5 233.955C702.5 233.66 702.5 233.365 702.5 233.07C702.5 232.775 702.5 232.481 702.5 232.186C702.5 231.892 702.5 231.597 702.5 231.303C702.5 231.009 702.5 230.715 702.5 230.421C702.5 230.127 702.5 229.833 702.5 229.54C702.5 229.247 702.5 228.953 702.5 228.66C702.5 228.367 702.5 228.074 702.5 227.781C702.5 227.489 702.5 227.196 702.5 226.904C702.5 226.611 702.5 226.319 702.5 226.027C702.5 225.735 702.5 225.443 702.5 225.151C702.5 224.86 702.5 224.568 702.5 224.277C702.5 223.986 702.5 223.695 702.5 223.404C702.5 223.113 702.5 222.822 702.5 222.531C702.5 222.241 702.5 221.95 702.5 221.66C702.5 221.37 702.5 221.08 702.5 220.79C702.5 220.5 702.5 220.211 702.5 219.921C702.5 219.632 702.5 219.343 702.5 219.054C702.5 218.764 702.5 218.476 702.5 218.187C702.5 217.898 702.5 217.61 702.5 217.321C702.5 217.033 702.5 216.745 702.5 216.457C702.5 216.169 702.5 215.881 702.5 215.594C702.5 215.306 702.5 215.019 702.5 214.732C702.5 214.444 702.5 214.157 702.5 213.871C702.5 213.584 702.5 213.297 702.5 213.011C702.5 212.724 702.5 212.438 702.5 212.152C702.5 211.866 702.5 211.58 702.5 211.294C702.5 211.009 702.5 210.723 702.5 210.438C702.5 210.153 702.5 209.868 702.5 209.583C702.5 209.298 702.5 209.013 702.5 208.729C702.5 208.444 702.5 208.16 702.5 207.876C702.5 207.592 702.5 207.308 702.5 207.024C702.5 206.741 702.5 206.457 702.5 206.174C702.5 205.89 702.5 205.607 702.5 205.324C702.5 205.041 702.5 204.759 702.5 204.476C702.5 204.194 702.5 203.911 702.5 203.629C702.5 203.347 702.5 203.065 702.5 202.783C702.5 202.502 702.5 202.22 702.5 201.939C702.5 201.658 702.5 201.376 702.5 201.096C702.5 200.815 702.5 200.534 702.5 200.253C702.5 199.973 702.5 199.693 702.5 199.412C702.5 199.132 702.5 198.852 702.5 198.573C702.5 198.293 702.5 198.014 702.5 197.734C702.5 197.455 702.5 197.176 702.5 196.897C702.5 196.618 702.5 196.339 702.5 196.061C702.5 195.782 702.5 195.504 702.5 195.226C702.5 194.948 702.5 194.67 702.5 194.392C702.5 194.115 702.5 193.837 702.5 193.56C702.5 193.283 702.5 193.006 702.5 192.729C702.5 192.452 702.5 192.175 702.5 191.899C702.5 191.623 702.5 191.346 702.5 191.07C702.5 190.794 702.5 190.519 702.5 190.243C702.5 189.968 702.5 189.692 702.5 189.417C702.5 189.142 702.5 188.867 702.5 188.592C702.5 188.317 702.5 188.043 702.5 187.769C702.5 187.494 702.5 187.22 702.5 186.946C702.5 186.672 702.5 186.399 702.5 186.125C702.5 185.852 702.5 185.579 702.5 185.306C702.5 185.032 702.5 184.76 702.5 184.487C702.5 184.214 702.5 183.942 702.5 183.67C702.5 183.398 702.5 183.126 702.5 182.854C702.5 182.582 702.5 182.311 702.5 182.039C702.5 181.768 702.5 181.497 702.5 181.226C702.5 180.955 702.5 180.685 702.5 180.414C702.5 180.144 702.5 179.873 702.5 179.603C702.5 179.333 702.5 179.064 702.5 178.794C702.5 178.525 702.5 178.255 702.5 177.986C702.5 177.717 702.5 177.448 702.5 177.179C702.5 176.911 702.5 176.642 702.5 176.374C702.5 176.106 702.5 175.838 702.5 175.57C702.5 175.302 702.5 175.034 702.5 174.767C702.5 174.5 702.5 174.233 702.5 173.966C702.5 173.699 702.5 173.432 702.5 173.166C702.5 172.899 702.5 172.633 702.5 172.367C702.5 172.101 702.5 171.835 702.5 171.569C702.5 171.304 702.5 171.039 702.5 170.773C702.5 170.508 702.5 170.243 702.5 169.979C702.5 169.714 702.5 169.45 702.5 169.185C702.5 168.921 702.5 168.657 702.5 168.393C702.5 168.13 702.5 167.866 702.5 167.603C702.5 167.34 702.5 167.076 702.5 166.814C702.5 166.551 702.5 166.288 702.5 166.026C702.5 165.763 702.5 165.501 702.5 165.239C702.5 164.977 702.5 164.716 702.5 164.454C702.5 164.193 702.5 163.932 702.5 163.671C702.5 163.41 702.5 163.149 702.5 162.888C702.5 162.628 702.5 162.367 702.5 162.107C702.5 161.847 702.5 161.587 702.5 161.328C702.5 161.068 702.5 160.809 702.5 160.55C702.5 160.291 702.5 160.032 702.5 159.773C702.5 159.514 702.5 159.256 702.5 158.998C702.5 158.74 702.5 158.482 702.5 158.224C702.5 157.966 702.5 157.709 702.5 157.451C702.5 157.194 702.5 156.937 702.5 156.68C702.5 156.424 702.5 156.167 702.5 155.911C702.5 155.655 702.5 155.398 702.5 155.143C702.5 154.887 702.5 154.631 702.5 154.376C702.5 154.121 702.5 153.865 702.5 153.611C702.5 153.356 702.5 153.101 702.5 152.847C702.5 152.592 702.5 152.338 702.5 152.084C702.5 151.83 702.5 151.577 702.5 151.323C702.5 151.07 702.5 150.817 702.5 150.564C702.5 150.311 702.5 150.058 702.5 149.806C702.5 149.553 702.5 149.301 702.5 149.049C702.5 148.797 702.5 148.546 702.5 148.294C702.5 148.043 702.5 147.792 702.5 147.541C702.5 147.29 702.5 147.039 702.5 146.788C702.5 146.538 702.5 146.288 702.5 146.038C702.5 145.788 702.5 145.538 702.5 145.289C702.5 145.039 702.5 144.79 702.5 144.541C702.5 144.292 702.5 144.043 702.5 143.795C702.5 143.546 702.5 143.298 702.5 143.05C702.5 142.802 702.5 142.554 702.5 142.307C702.5 142.059 702.5 141.812 702.5 141.565C702.5 141.318 702.5 141.071 702.5 140.825C702.5 140.578 702.5 140.332 702.5 140.086C702.5 139.84 702.5 139.594 702.5 139.349C702.5 139.103 702.5 138.858 702.5 138.613C702.5 138.368 702.5 138.124 702.5 137.879C702.5 137.635 702.5 137.39 702.5 137.146C702.5 136.902 702.5 136.659 702.5 136.415C702.5 136.172 702.5 135.929 702.5 135.686C702.5 135.443 702.5 135.2 702.5 134.958C702.5 134.715 702.5 134.473 702.5 134.231C702.5 133.989 702.5 133.748 702.5 133.506C702.5 133.265 702.5 133.024 702.5 132.783C702.5 132.542 702.5 132.302 702.5 132.061C702.5 131.821 702.5 131.581 702.5 131.341C702.5 131.101 702.5 130.862 702.5 130.622C702.5 130.383 702.5 130.144 702.5 129.905C702.5 129.666 702.5 129.428 702.5 129.19C702.5 128.951 702.5 128.713 702.5 128.476C702.5 128.238 702.5 128 702.5 127.763C702.5 127.526 702.5 127.289 702.5 127.052C702.5 126.816 702.5 126.579 702.5 126.343C702.5 126.107 702.5 125.871 702.5 125.636C702.5 125.4 702.5 125.165 702.5 124.93C702.5 124.695 702.5 124.46 702.5 124.225C702.5 123.991 702.5 123.756 702.5 123.522C702.5 123.288 702.5 123.055 702.5 122.821C702.5 122.588 702.5 122.354 702.5 122.122C702.5 121.889 702.5 121.656 702.5 121.424C702.5 121.191 702.5 120.959 702.5 120.727C702.5 120.495 702.5 120.264 702.5 120.032C702.5 119.801 702.5 119.57 702.5 119.339C702.5 119.108 702.5 118.878 702.5 118.648C702.5 118.418 702.5 118.188 702.5 117.958C702.5 117.728 702.5 117.499 702.5 117.27C702.5 117.041 702.5 116.812 702.5 116.583C702.5 116.355 702.5 116.126 702.5 115.898C702.5 115.67 702.5 115.442 702.5 115.215C702.5 114.987 702.5 114.76 702.5 114.533C702.5 114.306 702.5 114.08 702.5 113.853C702.5 113.627 702.5 113.401 702.5 113.175C702.5 112.949 702.5 112.724 702.5 112.498C702.5 112.273 702.5 112.048 702.5 111.823C702.5 111.599 702.5 111.374 702.5 111.15C702.5 110.926 702.5 110.702 702.5 110.479C702.5 110.255 702.5 110.032 702.5 109.809C702.5 109.586 702.5 109.363 702.5 109.14C702.5 108.918 702.5 108.696 702.5 108.474C702.5 108.252 702.5 108.03 702.5 107.809C702.5 107.588 702.5 107.367 702.5 107.146C702.5 106.925 702.5 106.705 702.5 106.484C702.5 106.264 702.5 106.044 702.5 105.825C702.5 105.605 702.5 105.386 702.5 105.167C702.5 104.948 702.5 104.729 702.5 104.51C702.5 104.292 702.5 104.074 702.5 103.856C702.5 103.638 702.5 103.42 702.5 103.203C702.5 102.986 702.5 102.769 702.5 102.552C702.5 102.335 702.5 102.119 702.5 101.902C702.5 101.686 702.5 101.47 702.5 101.255C702.5 101.039 702.5 100.824 702.5 100.609C702.5 100.394 702.5 100.179 702.5 99.9647C702.5 99.7502 702.5 99.5361 702.5 99.3222C702.5 99.1084 702.5 98.8948 702.5 98.6815C702.5 98.4683 702.5 98.2553 702.5 98.0426C702.5 97.8299 702.5 97.6175 702.5 97.4054C702.5 97.1934 702.5 96.9815 702.5 96.77C702.5 96.5585 702.5 96.3473 702.5 96.1364C702.5 95.9255 702.5 95.7149 702.5 95.5045C702.5 95.2942 702.5 95.0842 702.5 94.8745C702.5 94.6647 702.5 94.4553 702.5 94.2461C702.5 94.037 702.5 93.8282 702.5 93.6196C702.5 93.4111 702.5 93.2028 702.5 92.9949C702.5 92.7869 702.5 92.5793 702.5 92.3719C702.5 92.1646 702.5 91.9575 702.5 91.7508C702.5 91.544 702.5 91.3376 702.5 91.1314C702.5 90.9253 702.5 90.7194 702.5 90.5139C702.5 90.3083 702.5 90.1031 702.5 89.8982C702.5 89.6932 702.5 89.4886 702.5 89.2842C702.5 89.0799 702.5 88.8759 702.5 88.6721C702.5 88.4684 702.5 88.265 702.5 88.0618C702.5 87.8587 702.5 87.6559 702.5 87.4534C702.5 87.2509 702.5 87.0486 702.5 86.8467C702.5 86.6448 702.5 86.4432 702.5 86.2419C702.5 86.0406 702.5 85.8396 702.5 85.639C702.5 85.4383 702.5 85.2379 702.5 85.0378C702.5 84.8378 702.5 84.638 702.5 84.4385C702.5 84.2391 702.5 84.0399 702.5 83.8411C702.5 83.6423 702.5 83.4437 702.5 83.2455C702.5 83.0473 702.5 82.8494 702.5 82.6518C702.5 82.4542 702.5 82.2569 702.5 82.0599C702.5 81.8629 702.5 81.6663 702.5 81.4699C702.5 81.2735 702.5 81.0775 702.5 80.8818C702.5 80.686 702.5 80.4906 702.5 80.2955C702.5 80.1004 702.5 79.9056 702.5 79.7111C702.5 79.5166 702.5 79.3224 702.5 79.1286C702.5 78.9347 702.5 78.7412 702.5 78.548C702.5 78.3547 702.5 78.1618 702.5 77.9692C702.5 77.7766 702.5 77.5843 702.5 77.3924C702.5 77.2004 702.5 77.0088 702.5 76.8174C702.5 76.6261 702.5 76.4351 702.5 76.2444C702.5 76.0537 702.5 75.8633 702.5 75.6732C702.5 75.4832 702.5 75.2934 702.5 75.104C702.5 74.9146 702.5 74.7254 702.5 74.5367C702.5 74.3479 702.5 74.1594 702.5 73.9712C702.5 73.7831 702.5 73.5953 702.5 73.4077C702.5 73.2202 702.5 73.033 702.5 72.8462C702.5 72.6593 702.5 72.4728 702.5 72.2865C702.5 72.1003 702.5 71.9144 702.5 71.7288C702.5 71.5433 702.5 71.358 702.5 71.1731C702.5 70.9881 702.5 70.8035 702.5 70.6192C702.5 70.4349 702.5 70.251 702.5 70.0673C702.5 69.8837 702.5 69.7004 702.5 69.5174C702.5 69.3344 702.5 69.1517 702.5 68.9694C702.5 68.7871 702.5 68.6051 702.5 68.4234C702.5 68.2417 702.5 68.0603 702.5 67.8793C702.5 67.6983 702.5 67.5176 702.5 67.3372C702.5 67.1568 702.5 66.9768 702.5 66.7971C702.5 66.6173 702.5 66.4379 702.5 66.2589C702.5 66.0798 702.5 65.9011 702.5 65.7227C702.5 65.5443 702.5 65.3662 702.5 65.1885C702.5 65.0107 702.5 64.8333 702.5 64.6562C702.5 64.4792 702.5 64.3024 702.5 64.126C702.5 63.9496 702.5 63.7735 702.5 63.5978C702.5 63.422 702.5 63.2466 702.5 63.0715C702.5 62.8964 702.5 62.7217 702.5 62.5473C702.5 62.3728 702.5 62.1987 702.5 62.025C702.5 61.8513 702.5 61.6778 702.5 61.5048C702.5 61.3317 702.5 61.1589 702.5 60.9865C702.5 60.8141 702.5 60.6421 702.5 60.4703C702.5 60.2986 702.5 60.1272 702.5 59.9561C702.5 59.7851 702.5 59.6143 702.5 59.444C702.5 59.2736 702.5 59.1035 702.5 58.9338C702.5 58.7641 702.5 58.5947 702.5 58.4257C702.5 58.2567 702.5 58.088 702.5 57.9196C702.5 57.7513 702.5 57.5833 702.5 57.4156C702.5 57.2479 702.5 57.0806 702.5 56.9136C702.5 56.7466 702.5 56.58 702.5 56.4137C702.5 56.2474 702.5 56.0814 702.5 55.9158C702.5 55.7502 702.5 55.5849 702.5 55.42C702.5 55.255 702.5 55.0904 702.5 54.9262C702.5 54.7619 702.5 54.598 702.5 54.4345C702.5 54.2709 702.5 54.1077 702.5 53.9448C702.5 53.782 702.5 53.6195 702.5 53.4573C702.5 53.2951 702.5 53.1333 702.5 52.9718C702.5 52.8103 702.5 52.6492 702.5 52.4884C702.5 52.3276 702.5 52.1671 702.5 52.007C702.5 51.847 702.5 51.6872 702.5 51.5278C702.5 51.3684 702.5 51.2094 702.5 51.0507C702.5 50.892 702.5 50.7336 702.5 50.5756C702.5 50.4176 702.5 50.26 702.5 50.1027C702.5 49.9454 702.5 49.7884 702.5 49.6318C702.5 49.4752 702.5 49.319 702.5 49.1631C702.5 49.0072 702.5 48.8516 702.5 48.6965C702.5 48.5413 702.5 48.3864 702.5 48.2319C702.5 48.0775 702.5 47.9233 702.5 47.7696C702.5 47.6158 702.5 47.4624 702.5 47.3093C702.5 47.1562 702.5 47.0035 702.5 46.8512C702.5 46.6988 702.5 46.5468 702.5 46.3951C702.5 46.2435 702.5 46.0922 702.5 45.9413C702.5 45.7903 702.5 45.6398 702.5 45.4896C702.5 45.3393 702.5 45.1895 702.5 45.04C702.5 44.8905 702.5 44.7413 702.5 44.5925C702.5 44.4437 702.5 44.2953 702.5 44.1472C702.5 43.9992 702.5 43.8515 702.5 43.7041C702.5 43.5568 702.5 43.4098 702.5 43.2632C702.5 43.1165 702.5 42.9703 702.5 42.8244C702.5 42.6784 702.5 42.5329 702.5 42.3877C702.5 42.2425 702.5 42.0977 702.5 41.9533C702.5 41.8088 702.5 41.6647 702.5 41.521C702.5 41.3772 702.5 41.2339 702.5 41.0909C702.5 40.9479 702.5 40.8052 702.5 40.6629C702.5 40.5207 702.5 40.3788 702.5 40.2372C702.5 40.0957 702.5 39.9545 702.5 39.8137C702.5 39.6729 702.5 39.5324 702.5 39.3923C702.5 39.2522 702.5 39.1125 702.5 38.9732C702.5 38.8338 702.5 38.6948 702.5 38.5562C702.5 38.4176 702.5 38.2794 702.5 38.1415C702.5 38.0036 702.5 37.8661 702.5 37.729C702.5 37.5918 702.5 37.4551 702.5 37.3187C702.5 37.1823 702.5 37.0463 702.5 36.9106C702.5 36.7749 702.5 36.6397 702.5 36.5047C702.5 36.3698 702.5 36.2353 702.5 36.1011C702.5 35.9669 702.5 35.8331 702.5 35.6997C702.5 35.5663 702.5 35.4332 702.5 35.3005C702.5 35.1679 702.5 35.0356 702.5 34.9036C702.5 34.7717 702.5 34.6401 702.5 34.5089C702.5 34.3778 702.5 34.247 702.5 34.1165C702.5 33.9861 702.5 33.856 702.5 33.7263C702.5 33.5967 702.5 33.4674 702.5 33.3384C702.5 33.2095 702.5 33.0809 702.5 32.9528C702.5 32.8246 702.5 32.6968 702.5 32.5694C702.5 32.4419 702.5 32.3149 702.5 32.1882C702.5 32.0616 702.5 31.9353 702.5 31.8094C702.5 31.6835 702.5 31.558 702.5 31.4328C702.5 31.3077 702.5 31.1829 702.5 31.0585C702.5 30.9341 702.5 30.8101 702.5 30.6865C702.5 30.5629 702.5 30.4396 702.5 30.3168C702.5 30.1939 702.5 30.0714 702.5 29.9493C702.5 29.8272 702.5 29.7055 702.5 29.5842C702.5 29.4629 702.5 29.3419 702.5 29.2214C702.5 29.1008 702.5 28.9806 702.5 28.8608C702.5 28.741 702.5 28.6216 702.5 28.5026C702.5 28.3836 702.5 28.2649 702.5 28.1467C702.5 28.0284 702.5 27.9106 702.5 27.7931C702.5 27.6756 702.5 27.5585 702.5 27.4418C702.5 27.3251 702.5 27.2088 702.5 27.0929C702.5 26.9769 702.5 26.8614 702.5 26.7463C702.5 26.6311 702.5 26.5163 702.5 26.402C702.5 26.2876 702.5 26.1736 702.5 26.06C702.5 25.9464 702.5 25.8332 702.5 25.7204C702.5 25.6076 702.5 25.4952 702.5 25.3831C702.5 25.2711 702.5 25.1595 702.5 25.0482C702.5 24.937 702.5 24.8261 702.5 24.7156C702.5 24.6052 702.5 24.4951 702.5 24.3854C702.5 24.2758 702.5 24.1665 702.5 24.0576C702.5 23.9487 702.5 23.8402 702.5 23.7321C702.5 23.624 702.5 23.5163 702.5 23.409C702.5 23.3017 702.5 23.1948 702.5 23.0882C702.5 22.9817 702.5 22.8756 702.5 22.7699C702.5 22.6641 702.5 22.5588 702.5 22.4539C702.5 22.349 702.5 22.2444 702.5 22.1403C702.5 22.0361 702.5 21.9324 702.5 21.8291C702.5 21.7257 702.5 21.6228 702.5 21.5202C702.5 21.4177 702.5 21.3156 702.5 21.2138C702.5 21.1121 702.5 21.0107 702.5 20.9098C702.5 20.8089 702.5 20.7083 702.5 20.6082C702.5 20.508 702.5 20.4083 702.5 20.309C702.5 20.2096 702.5 20.1107 702.5 20.0122C702.5 19.9136 702.5 19.8155 702.5 19.7178C702.5 19.6201 702.5 19.5227 702.5 19.4258C702.5 19.3289 702.5 19.2324 702.5 19.1363C702.5 19.0402 702.5 18.9445 702.5 18.8492C702.5 18.7539 702.5 18.659 702.5 18.5645C702.5 18.47 702.5 18.3759 702.5 18.2823C702.5 18.1886 702.5 18.0953 702.5 18.0025C702.5 17.9096 702.5 17.8171 702.5 17.7251L697.5 17.7251ZM685 0.500014L-5.22655e-09 0.500015L5.22655e-09 5.50002L685 5.50001L685 0.500014ZM350 738L125.5 738L125.5 743L350 743L350 738ZM697.5 390.46C697.5 582.379 541.919 738 350 738L350 743C544.681 743 702.5 585.14 702.5 390.46L697.5 390.46ZM702.5 17.7251C702.5 8.00007 694.604 0.500014 685 0.500014L685 5.50001C691.964 5.50001 697.5 10.8816 697.5 17.7251L702.5 17.7251Z" fill="#FF4343"/>
</svg>
