<svg width="1920" height="969" viewBox="0 0 1920 969" fill="none" xmlns="http://www.w3.org/2000/svg">
<g clip-path="url(#clip0_69_29)">
<path opacity="0.08" d="M1280.26 773.186L1732.79 283.397C1738.88 276.799 1749.37 277.002 1755.21 283.83L2173.85 773.619C2182.17 783.353 2175.25 798.365 2162.45 798.365H2003.61C1995.33 798.365 1988.61 805.081 1988.61 813.365V1026C1988.61 1034.28 1981.89 1041 1973.61 1041H1482.39C1474.1 1041 1467.39 1034.28 1467.39 1026V813.365C1467.39 805.081 1460.67 798.365 1452.39 798.365H1291.28C1278.2 798.365 1271.39 782.793 1280.26 773.186Z" fill="#FF4343"/>
<path opacity="0.08" d="M941.277 914.983L1109.13 733.388C1115.23 726.794 1125.71 726.997 1131.55 733.821L1286.84 915.416C1295.16 925.15 1288.24 940.165 1275.44 940.165H1237.19C1228.9 940.165 1222.19 946.88 1222.19 955.165V1026C1222.19 1034.28 1215.47 1041 1207.19 1041H1020.47C1012.19 1041 1005.47 1034.28 1005.47 1026V955.165C1005.47 946.88 998.759 940.165 990.475 940.165H952.292C939.21 940.165 932.397 924.589 941.277 914.983Z" fill="#FF4343"/>
<path opacity="0.08" d="M-380.712 565.285L72.3107 75.3811C78.4056 68.79 88.8862 68.9925 94.7219 75.8141L513.826 565.718C522.152 575.451 515.236 590.469 502.428 590.469H343.39C335.106 590.469 328.39 597.184 328.39 605.469V1162C328.39 1170.28 321.674 1177 313.39 1177H-178.388C-186.672 1177 -193.388 1170.28 -193.388 1162V605.469C-193.388 597.184 -200.104 590.469 -208.388 590.469H-369.699C-382.782 590.469 -389.594 574.89 -380.712 565.285Z" fill="#FF4343"/>
</g>
<defs>
<clipPath id="clip0_69_29">
<rect width="1920" height="970" fill="white"/>
</clipPath>
</defs>
</svg>
