<svg width="19" height="19" viewBox="0 0 19 19" fill="none" xmlns="http://www.w3.org/2000/svg">
<g id="Vector (!)">
<path d="M10.1023 12.4545L10.2443 2H8.3125L8.45455 12.4545H10.1023Z" fill="#FF4343"/>
<path d="M8.37642 16.2827C8.62737 16.5336 8.92803 16.6591 9.27841 16.6591C9.51515 16.6591 9.72822 16.6023 9.91761 16.4886C10.1117 16.3703 10.2656 16.214 10.3793 16.0199C10.4976 15.8258 10.5568 15.6127 10.5568 15.3807C10.5568 15.0303 10.4313 14.7296 10.1804 14.4787C9.92945 14.2277 9.62879 14.1023 9.27841 14.1023C8.92803 14.1023 8.62737 14.2277 8.37642 14.4787C8.12547 14.7296 8 15.0303 8 15.3807C8 15.7311 8.12547 16.0317 8.37642 16.2827Z" fill="#FF4343"/>
<path fill-rule="evenodd" clip-rule="evenodd" d="M19 9.5C19 14.7467 14.7467 19 9.5 19C4.25329 19 0 14.7467 0 9.5C0 4.25329 4.25329 0 9.5 0C14.7467 0 19 4.25329 19 9.5ZM18 9.5C18 14.1944 14.1944 18 9.5 18C4.80558 18 1 14.1944 1 9.5C1 4.80558 4.80558 1 9.5 1C14.1944 1 18 4.80558 18 9.5Z" fill="#FF4343"/>
</g>
</svg>
